# xmcd CD database file
#
# Track frame offsets:
#	150
#	5290
#	11425
#	16210
#	23265
#	28845
#	36064
#	48777
#	54742
#	61274
#	74196
#	84474
#	92889
#	106232
#	113405
#	126231
#	144801
#	157402
#	164886
#	199469
#	248922
#	266040
#	280135
#	292509
#
# Disc length: 4012 seconds
#
# Revision: 3
# Processed by: cddbd v1.5.2PL0 Copyright (c) Steve Scherf et al.
# Submitted via: CDex 1.51
#
DISCID=490faa18
DTITLE=Muzio Clementi - Six sonatines Op.36 - Sept études Op.44  (Pietro Spada, piano)
DYEAR=1900
DGENRE=Classique
TTITLE0=Sonatine N°1, Op.36 - I. Allegro
TTITLE1=Sonatine N°1, Op.36 - II. Andante
TTITLE2=Sonatine N°1, Op.36 - III. Vivace
TTITLE3=Sonatine N°2, Op.36 - I. Allegretto
TTITLE4=Sonatine N°2, Op.36 - II. Allegretto
TTITLE5=Sonatine N°2, Op.36 - III. Allegro
TTITLE6=Sonatine N°3, Op.36 - I. Spiritoso
TTITLE7=Sonatine N°3, Op.36 - II. Un poco adagio
TTITLE8=Sonatine N°3, Op.36 - III. Allegro
TTITLE9=Sonatine N°4, Op.36 - I. Con spirito
TTITLE10=Sonatine N°4, Op.36 - II. Andante con espressione
TTITLE11=Sonatine N°4, Op.36 - III. Rondeau - Allegro vivace
TTITLE12=Sonatine N°5, Op.36 - I. Presto
TTITLE13=Sonatine N°5, Op.36 - II. Original swiss air - Allegretto moderato
TTITLE14=Sonatine N°5, Op.36 - III. Rondo - Allegro di molto
TTITLE15=Sonatine N°6, Op.36 - I. Allegro con spirito
TTITLE16=Sonatine N°6, Op.36 - II. Rondo - Allegro spiritoso
TTITLE17=Étude N°09, Op.44 ''Gradus ad Parnassum''
TTITLE18=Étude N°15, Op.44 ''Gradus ad Parnassum''
TTITLE19=Étude N°39, Op.44 ''Gradus ad Parnassum''
TTITLE20=Étude N°44, Op.44 ''Gradus ad Parnassum''
TTITLE21=Étude N°58, Op.44 ''Gradus ad Parnassum''
TTITLE22=Étude N°94, Op.44 ''Gradus ad Parnassum''
TTITLE23=Étude N°95, Op.44 ''Gradus ad Parnassum''
EXTD=
EXTT0=
EXTT1=
EXTT2=
EXTT3=
EXTT4=
EXTT5=
EXTT6=
EXTT7=
EXTT8=
EXTT9=
EXTT10=
EXTT11=
EXTT12=
EXTT13=
EXTT14=
EXTT15=
EXTT16=
EXTT17=
EXTT18=
EXTT19=
EXTT20=
EXTT21=
EXTT22=
EXTT23=
PLAYORDER=
